<svg width="105" height="65" viewBox="0 0 105 65" fill="none" xmlns="http://www.w3.org/2000/svg">
<path d="M7.40385 3.89222C5.5452 3.89222 4.03846 5.34439 4.03846 7.13573V57.8643C4.03846 59.6556 5.5452 61.1078 7.40385 61.1078H97.5962C99.4548 61.1078 100.962 59.6556 100.962 57.8643V7.13573C100.962 5.34439 99.4548 3.89222 97.5962 3.89222H7.40385ZM7.40385 0H97.5962C101.685 0 105 3.19477 105 7.13573V57.8643C105 61.8052 101.685 65 97.5962 65H7.40385C3.31482 65 0 61.8052 0 57.8643V7.13573C0 3.19477 3.31482 0 7.40385 0Z" fill="#525291"/>
<path d="M39.5645 45.559L44.0227 19.771H51.1534L46.6921 45.559H39.5645Z" fill="#525291"/>
<path d="M72.4531 20.3272C71.0403 19.8048 68.8268 19.2441 66.0623 19.2441C59.0164 19.2441 54.0532 22.7417 54.0109 27.7545C53.9712 31.46 57.5542 33.5271 60.259 34.7606C63.0345 36.0246 63.9676 36.8308 63.9544 37.9595C63.9368 39.6881 61.7379 40.4778 59.6883 40.4778C56.8343 40.4778 55.318 40.0869 52.9763 39.1241L52.0574 38.7142L51.0566 44.4872C52.7221 45.2069 55.8019 45.8307 58.9997 45.863C66.4952 45.863 71.3612 42.4054 71.4165 37.0525C71.4434 34.119 69.5436 31.8864 65.4298 30.046C62.9373 28.853 61.4109 28.057 61.4271 26.849C61.4271 25.7771 62.7191 24.6309 65.5106 24.6309C67.8424 24.5952 69.5315 25.0964 70.8475 25.6189L71.4865 25.9165L72.4531 20.3272Z" fill="#525291"/>
<path d="M90.8026 19.771H85.2927C83.5857 19.771 82.3085 20.2302 81.5588 21.9095L70.9688 45.5425H78.4565C78.4565 45.5425 79.6809 42.3649 79.9578 41.6672C80.776 41.6672 88.05 41.6783 89.0899 41.6783C89.3032 42.5811 89.9575 45.5425 89.9575 45.5425H96.5741L90.8026 19.771ZM82.0606 36.4228C82.6503 34.937 84.9015 29.214 84.9015 29.214C84.8594 29.2827 85.4869 27.721 85.847 26.7528L86.329 28.9761C86.329 28.9761 87.6944 35.1318 87.9797 36.4226H82.0606V36.4228Z" fill="#525291"/>
<path d="M33.5107 19.771L26.5296 37.3565L25.7857 33.7827C24.4861 29.663 20.437 25.1996 15.9102 22.9651L22.2936 45.5179L29.838 45.5093L41.064 19.771H33.5107Z" fill="#525291"/>
<path d="M20.016 19.771H8.51776L8.42676 20.3075C17.3722 22.4421 23.2914 27.6006 25.7484 33.7987L23.2482 21.9481C22.8166 20.3152 21.5647 19.8279 20.016 19.771Z" fill="#525291"/>
</svg>
