<svg width="101" height="101" viewBox="0 0 101 101" fill="none" xmlns="http://www.w3.org/2000/svg">
<path d="M91.0814 10.6129H75.4856L56.2581 4.33982C55.1035 3.96202 53.8792 3.84638 52.6743 4.0013C51.4694 4.15622 50.3141 4.57782 49.2927 5.2354L37.7072 12.6782C37.5823 12.7584 37.4743 12.8624 37.3895 12.9843C37.3047 13.1062 37.2447 13.2437 37.213 13.3887C37.1814 13.5338 37.1785 13.6837 37.2048 13.8299C37.231 13.976 37.2858 14.1156 37.366 14.2406C37.4462 14.3656 37.5502 14.4736 37.6721 14.5583C37.794 14.6431 37.9314 14.7031 38.0765 14.7348C38.2215 14.7665 38.3714 14.7693 38.5176 14.743C38.6638 14.7168 38.8033 14.662 38.9283 14.5818L50.5137 7.14888C51.2536 6.67374 52.0902 6.36978 52.9625 6.25921C53.8348 6.14863 54.7208 6.23423 55.5558 6.50974L74.9609 12.8222C75.0735 12.8593 75.1914 12.8779 75.31 12.8775H89.953V31.8761H81.5397C81.3324 31.8764 81.1291 31.9335 80.952 32.0414C80.775 32.1492 80.6309 32.3036 80.5356 32.4877C79.2683 34.6313 77.3328 36.3 75.026 37.2378V32.1543C76.8388 31.381 78.774 30.0356 80.0089 27.6901C80.0784 27.5586 80.1214 27.4145 80.1353 27.2663C80.1492 27.1181 80.1338 26.9687 80.0899 26.8264C80.046 26.6842 79.9746 26.552 79.8796 26.4374C79.7847 26.3227 79.668 26.2279 79.5364 26.1584C79.4048 26.0888 79.2608 26.0459 79.1126 26.032C78.9644 26.0181 78.8149 26.0335 78.6727 26.0774C78.5305 26.1212 78.3983 26.1927 78.2836 26.2877C78.169 26.3826 78.0742 26.4992 78.0047 26.6308C75.8545 30.7418 70.5086 30.9253 70.479 30.9253C63.3182 30.9253 61.2509 25.9266 61.168 25.7195C61.086 25.5061 60.9413 25.3225 60.7529 25.1929C60.5645 25.0633 60.3413 24.9938 60.1127 24.9935H49.486C49.083 25.0038 48.682 24.9334 48.3067 24.7863C47.9314 24.6392 47.5894 24.4184 47.3007 24.1371C47.012 23.8557 46.7826 23.5194 46.626 23.1479C46.4694 22.7765 46.3887 22.3775 46.3887 21.9744C46.3887 21.5713 46.4694 21.1722 46.626 20.8008C46.7826 20.4294 47.012 20.0931 47.3007 19.8117C47.5894 19.5303 47.9314 19.3096 48.3067 19.1625C48.682 19.0154 49.083 18.9449 49.486 18.9552H62.1702C62.3227 18.9616 62.475 18.9371 62.6178 18.8831C62.7606 18.8291 62.891 18.7468 63.0012 18.6411C63.1114 18.5354 63.199 18.4086 63.2589 18.2681C63.3188 18.1277 63.3497 17.9766 63.3497 17.8239C63.3497 17.6712 63.3188 17.5201 63.2589 17.3797C63.199 17.2393 63.1114 17.1124 63.0012 17.0067C62.891 16.901 62.7606 16.8187 62.6178 16.7647C62.475 16.7108 62.3227 16.6862 62.1702 16.6926H49.486C48.7838 16.679 48.0859 16.8056 47.4332 17.0649C46.7805 17.3243 46.1861 17.7112 45.6847 18.203C45.1833 18.6948 44.785 19.2816 44.5131 19.9292C44.2412 20.5768 44.1011 21.272 44.1011 21.9744C44.1011 22.6767 44.2412 23.372 44.5131 24.0196C44.785 24.6671 45.1833 25.254 45.6847 25.7458C46.1861 26.2376 46.7805 26.6245 47.4332 26.8838C48.0859 27.1432 48.7838 27.2697 49.486 27.2562H59.4045C60.3494 28.9901 63.3755 33.1879 70.5027 33.1879C71.2644 33.1542 72.0212 33.0492 72.7633 32.8743V49.6419C72.7628 50.0843 72.5868 50.5085 72.2739 50.8214C71.9611 51.1342 71.5369 51.3102 71.0945 51.3107H12.7176C12.2757 51.3102 11.8519 51.1348 11.5388 50.8229C11.2258 50.5109 11.0489 50.0878 11.0468 49.6458V20.6241C11.0473 20.1816 11.2233 19.7575 11.5362 19.4446C11.849 19.1317 12.2732 18.9557 12.7157 18.9552H41.5618C41.7144 18.9616 41.8666 18.9371 42.0094 18.8831C42.1522 18.8291 42.2827 18.7468 42.3928 18.6411C42.503 18.5354 42.5907 18.4086 42.6506 18.2681C42.7105 18.1277 42.7414 17.9766 42.7414 17.8239C42.7414 17.6712 42.7105 17.5201 42.6506 17.3797C42.5907 17.2393 42.503 17.1124 42.3928 17.0067C42.2827 16.901 42.1522 16.8187 42.0094 16.7647C41.8666 16.7108 41.7144 16.6862 41.5618 16.6926H12.7176C11.6761 16.6962 10.6782 17.1116 9.94166 17.8481C9.20515 18.5846 8.78977 19.5825 8.78613 20.6241V49.6458C8.78977 50.6874 9.20515 51.6853 9.94166 52.4218C10.6782 53.1583 11.6761 53.5737 12.7176 53.5773H71.0945C72.136 53.5737 73.1339 53.1583 73.8704 52.4218C74.6069 51.6853 75.0223 50.6874 75.026 49.6458V39.6346C79.0817 38.3425 81.3523 35.417 82.1808 34.1368H91.0814C91.3814 34.1368 91.6691 34.0178 91.8814 33.8058C92.0937 33.5939 92.2132 33.3064 92.2137 33.0065V11.7452C92.2137 11.4449 92.0944 11.1569 91.8821 10.9445C91.6697 10.7322 91.3817 10.6129 91.0814 10.6129Z" fill="#525291"/>
<path d="M16.4579 41.0963V29.1716C17.648 28.9428 18.7422 28.3625 19.5992 27.5055C20.4562 26.6486 21.0365 25.5543 21.2652 24.3642H40.5835C40.8753 24.352 41.1512 24.2275 41.3534 24.0167C41.5556 23.8058 41.6685 23.525 41.6685 23.2329C41.6685 22.9408 41.5556 22.6599 41.3534 22.4491C41.1512 22.2383 40.8753 22.1138 40.5835 22.1016H20.2414C19.9411 22.1016 19.6531 22.2209 19.4408 22.4332C19.2284 22.6456 19.1091 22.9336 19.1091 23.2339C19.1099 23.7312 19.0127 24.2237 18.823 24.6834C18.6334 25.1431 18.355 25.561 18.0039 25.9131C17.6527 26.2652 17.2356 26.5446 16.7764 26.7355C16.3171 26.9263 15.8248 27.0248 15.3275 27.0253C15.0303 27.0274 14.7458 27.1462 14.5354 27.3562C14.3251 27.5662 14.2057 27.8505 14.2031 28.1478V42.1221C14.2031 42.2707 14.2324 42.4178 14.2894 42.5551C14.3463 42.6923 14.4297 42.817 14.5349 42.922C14.6401 43.027 14.7649 43.1102 14.9023 43.1669C15.0396 43.2236 15.1868 43.2527 15.3354 43.2524C16.3382 43.254 17.2995 43.6531 18.0084 44.3624C18.7173 45.0717 19.116 46.0331 19.117 47.0359C19.117 47.1846 19.1463 47.3317 19.2032 47.469C19.2602 47.6062 19.3436 47.7309 19.4488 47.8359C19.5539 47.9409 19.6788 48.0241 19.8162 48.0808C19.9535 48.1375 20.1007 48.1665 20.2493 48.1663H63.5708C63.7194 48.1665 63.8666 48.1375 64.004 48.0808C64.1413 48.0241 64.2662 47.9409 64.3714 47.8359C64.4765 47.7309 64.56 47.6062 64.6169 47.469C64.6738 47.3317 64.7031 47.1846 64.7031 47.0359C64.7042 46.0331 65.1029 45.0717 65.8118 44.3624C66.5207 43.6531 67.4819 43.254 68.4847 43.2524C68.6333 43.2527 68.7805 43.2236 68.9179 43.1669C69.0552 43.1102 69.1801 43.027 69.2852 42.922C69.3904 42.817 69.4739 42.6923 69.5308 42.5551C69.5877 42.4178 69.617 42.2707 69.617 42.1221V37.0089C69.6234 36.8564 69.5988 36.7041 69.5449 36.5613C69.4909 36.4185 69.4086 36.2881 69.3029 36.1779C69.1972 36.0677 69.0703 35.98 68.9299 35.9201C68.7895 35.8603 68.6384 35.8294 68.4857 35.8294C68.333 35.8294 68.1819 35.8603 68.0415 35.9201C67.9011 35.98 67.7742 36.0677 67.6685 36.1779C67.5628 36.2881 67.4805 36.4185 67.4265 36.5613C67.3725 36.7041 67.348 36.8564 67.3544 37.0089V41.0963C66.1644 41.3255 65.0705 41.906 64.2136 42.7629C63.3567 43.6198 62.7762 44.7137 62.547 45.9036H21.2652C21.036 44.7137 20.4555 43.6198 19.5986 42.7629C18.7418 41.906 17.6478 41.3255 16.4579 41.0963Z" fill="#525291"/>
<path d="M40.4195 31.4123H43.1418C43.4337 31.4001 43.7095 31.2756 43.9117 31.0648C44.1139 30.8539 44.2268 30.5731 44.2268 30.281C44.2268 29.9888 44.1139 29.708 43.9117 29.4972C43.7095 29.2864 43.4337 29.1618 43.1418 29.1497H42.2521V28.4217C42.2585 28.2692 42.2339 28.117 42.18 27.9741C42.126 27.8313 42.0437 27.7009 41.938 27.5907C41.8323 27.4805 41.7054 27.3929 41.565 27.333C41.4246 27.2731 41.2735 27.2422 41.1208 27.2422C40.9681 27.2422 40.817 27.2731 40.6766 27.333C40.5362 27.3929 40.4093 27.4805 40.3036 27.5907C40.1979 27.7009 40.1156 27.8313 40.0616 27.9741C40.0076 28.117 39.9831 28.2692 39.9895 28.4217V29.1773C39.0595 29.2475 38.1945 29.6808 37.5813 30.3836C36.9681 31.0863 36.6561 32.0021 36.7126 32.933C36.7691 33.8639 37.1895 34.7353 37.8832 35.3587C38.5768 35.9822 39.4879 36.3078 40.4195 36.265H41.8201C42.1644 36.265 42.4945 36.4018 42.7379 36.6452C42.9814 36.8886 43.1181 37.2188 43.1181 37.563C43.1181 37.9073 42.9814 38.2374 42.7379 38.4809C42.4945 38.7243 42.1644 38.861 41.8201 38.861H39.1018C38.9492 38.8547 38.797 38.8792 38.6542 38.9332C38.5114 38.9872 38.3809 39.0695 38.2708 39.1752C38.1606 39.2808 38.0729 39.4077 38.013 39.5482C37.9531 39.6886 37.9222 39.8397 37.9222 39.9924C37.9222 40.145 37.9531 40.2961 38.013 40.4366C38.0729 40.577 38.1606 40.7039 38.2708 40.8096C38.3809 40.9152 38.5114 40.9975 38.6542 41.0515C38.797 41.1055 38.9492 41.13 39.1018 41.1237H39.9895V41.8516C40.0017 42.1435 40.1262 42.4193 40.337 42.6215C40.5478 42.8237 40.8287 42.9366 41.1208 42.9366C41.4129 42.9366 41.6937 42.8237 41.9046 42.6215C42.1154 42.4193 42.2399 42.1435 42.2521 41.8516V41.0901C43.1829 41.0207 44.0489 40.5876 44.6628 39.8845C45.2766 39.1814 45.589 38.2648 45.5322 37.3332C45.4754 36.4015 45.0541 35.5297 44.3594 34.9064C43.6646 34.283 42.7524 33.9583 41.8201 34.0024H40.4195C40.2452 34.0092 40.0713 33.9807 39.9082 33.9187C39.7452 33.8567 39.5963 33.7624 39.4706 33.6415C39.3448 33.5206 39.2448 33.3755 39.1765 33.215C39.1081 33.0545 39.0729 32.8818 39.0729 32.7073C39.0729 32.5329 39.1081 32.3602 39.1765 32.1997C39.2448 32.0392 39.3448 31.8941 39.4706 31.7732C39.5963 31.6523 39.7452 31.558 39.9082 31.496C40.0713 31.4339 40.2452 31.4055 40.4195 31.4123Z" fill="#525291"/>
<path d="M28.6488 34.3357C28.4397 34.5454 28.3208 34.8286 28.3174 35.1247C28.3172 35.1997 28.3252 35.2744 28.3411 35.3476C28.3549 35.4195 28.3768 35.4897 28.4062 35.5567C28.4332 35.6263 28.4683 35.6925 28.5107 35.754C28.5506 35.8153 28.5969 35.8721 28.6488 35.9236C28.7014 35.9763 28.7588 36.0239 28.8204 36.0657C28.8827 36.1061 28.9488 36.1405 29.0177 36.1683C29.0866 36.1968 29.1579 36.2192 29.2307 36.2353C29.3036 36.2488 29.3776 36.2554 29.4517 36.2551C29.7512 36.254 30.0383 36.1349 30.2506 35.9236C30.3031 35.8717 30.3507 35.8149 30.3926 35.754C30.4321 35.6908 30.467 35.6249 30.4972 35.5567C30.5232 35.4887 30.5443 35.4188 30.5603 35.3476C30.5755 35.2743 30.5828 35.1996 30.582 35.1247C30.5803 34.9017 30.5127 34.6842 30.3876 34.4995C30.2626 34.3148 30.0857 34.1713 29.8792 34.0869C29.6728 34.0025 29.4459 33.9812 29.2274 34.0254C29.0088 34.0697 28.8081 34.1776 28.6508 34.3357H28.6488Z" fill="#525291"/>
<path d="M53.4218 35.7639C53.4642 35.8244 53.5117 35.8811 53.5638 35.9335C53.6816 36.0522 53.8242 36.1433 53.9815 36.2C54.1388 36.2567 54.3067 36.2777 54.4731 36.2615C54.6395 36.2452 54.8002 36.1921 54.9435 36.1061C55.0868 36.02 55.2092 35.9031 55.3018 35.7639C55.3441 35.7024 55.3792 35.6362 55.4063 35.5666C55.4357 35.4995 55.4575 35.4294 55.4714 35.3575C55.4871 35.2856 55.495 35.2122 55.4951 35.1385C55.5014 34.986 55.4769 34.8337 55.4229 34.6909C55.3689 34.5481 55.2866 34.4177 55.1809 34.3075C55.0753 34.1973 54.9484 34.1097 54.808 34.0498C54.6675 33.9899 54.5164 33.959 54.3637 33.959C54.2111 33.959 54.06 33.9899 53.9195 34.0498C53.7791 34.1097 53.6522 34.1973 53.5466 34.3075C53.4409 34.4177 53.3586 34.5481 53.3046 34.6909C53.2506 34.8337 53.2261 34.986 53.2324 35.1385C53.2328 35.212 53.2401 35.2854 53.2541 35.3575C53.2698 35.4289 53.2916 35.4989 53.3192 35.5666C53.348 35.6351 53.3823 35.701 53.4218 35.7639Z" fill="#525291"/>
<path d="M81.3576 54.4004C80.3016 53.5705 78.9725 53.1672 77.6334 53.2702C76.2942 53.3732 75.0425 53.9751 74.1259 54.9567L66.971 62.6915C66.8631 62.7992 66.778 62.9276 66.7209 63.0691C66.6638 63.2105 66.6358 63.3619 66.6387 63.5144C66.6416 63.6669 66.6753 63.8172 66.7377 63.9564C66.8001 64.0955 66.8899 64.2206 67.0019 64.3242C67.1138 64.4278 67.2455 64.5076 67.3891 64.5591C67.5327 64.6105 67.6851 64.6323 67.8374 64.6234C67.9896 64.6144 68.1385 64.5748 68.275 64.5069C68.4116 64.439 68.533 64.3442 68.632 64.2282L75.7868 56.4934C76.3145 55.9278 77.0354 55.5811 77.8067 55.5219C78.5779 55.4627 79.3433 55.6954 79.9511 56.1739C80.2699 56.427 80.5352 56.741 80.7315 57.0976C80.9279 57.4541 81.0514 57.8462 81.0949 58.2509C81.1384 58.6556 81.101 59.065 80.9849 59.4551C80.8688 59.8453 80.6763 60.2085 80.4186 60.5236L67.9633 75.7564C67.0587 76.8658 65.7702 77.5945 64.3533 77.7981L40.2435 81.2878C39.0188 81.4685 37.8521 81.9287 36.8337 82.6327C35.8154 83.3367 34.9727 84.2656 34.3709 85.3475L33.712 86.5311H11.5335L23.0222 69.5524C24.6662 67.1045 26.9486 65.153 29.6221 63.9092C32.2957 62.6654 35.2586 62.1768 38.19 62.4962C40.134 62.6979 42.0487 63.1208 43.8969 63.7568C45.1525 64.2057 46.4752 64.4378 47.8086 64.4432H59.3388C60.2227 64.4443 61.07 64.7959 61.695 65.4208C62.32 66.0458 62.6716 66.8932 62.6726 67.777C62.6716 68.731 62.2921 69.6456 61.6176 70.3201C60.943 70.9947 60.0284 71.3741 59.0745 71.3752H48.5109C46.7818 71.3749 45.1071 71.9792 43.7765 73.0835L41.2949 75.1429C41.0729 75.3374 40.9356 75.6108 40.9123 75.905C40.8889 76.1992 40.9813 76.4909 41.1698 76.7179C41.3583 76.945 41.628 77.0895 41.9214 77.1207C42.2149 77.1518 42.5089 77.0672 42.7409 76.8848L45.2205 74.8253C46.1424 74.0613 47.3018 73.6428 48.4991 73.6417H59.0705C60.6243 73.6396 62.1138 73.0215 63.2124 71.9229C64.3111 70.8242 64.9292 69.3347 64.9313 67.781C64.9292 66.2973 64.3389 64.8751 63.2898 63.826C62.2408 62.7769 60.8185 62.1866 59.3349 62.1845H47.8086C46.7325 62.1787 45.6652 61.9899 44.6524 61.6263C42.6412 60.9307 40.557 60.4674 38.4405 60.2454C35.0994 59.8796 31.722 60.435 28.6739 61.8512C25.6258 63.2675 23.0233 65.4907 21.1482 68.2801L8.46402 87.0203C8.3465 87.1906 8.2779 87.3899 8.26566 87.5964C8.25341 87.803 8.298 88.0089 8.39458 88.1919C8.49116 88.3749 8.63604 88.5279 8.81347 88.6344C8.99091 88.7408 9.19412 88.7966 9.40103 88.7957H34.3788C34.5811 88.7943 34.7794 88.7387 34.9529 88.6346C35.1264 88.5305 35.2687 88.3818 35.3651 88.2039L36.3515 86.4285C36.7842 85.6515 37.3898 84.9845 38.1214 84.4789C38.8531 83.9734 39.6912 83.6428 40.571 83.5129L64.6867 80.0371C66.6638 79.7529 68.462 78.7362 69.7249 77.1886L82.1802 61.9557C82.6289 61.4088 82.9642 60.7781 83.1664 60.1002C83.3687 59.4223 83.4339 58.711 83.3583 58.0076C83.2826 57.3043 83.0676 56.6231 82.7258 56.0037C82.384 55.3844 81.9222 54.8394 81.3675 54.4004H81.3576Z" fill="#525291"/>
</svg>
