<svg width="127" height="127" viewBox="0 0 127 127" fill="none" xmlns="http://www.w3.org/2000/svg">
<path d="M119.221 35.275H105.826L80.6422 27.0696C79.139 26.5774 77.545 26.4266 75.9762 26.6283C74.4075 26.83 72.9034 27.379 71.5736 28.2354L55.8524 38.321C55.5488 38.5308 55.3384 38.8502 55.2658 39.2121C55.1931 39.5739 55.2638 39.9498 55.4629 40.2606C55.662 40.5713 55.974 40.7926 56.3331 40.8778C56.6922 40.9629 57.0704 40.9053 57.3878 40.7171L73.109 30.6291C74.0834 29.9993 75.186 29.595 76.3365 29.4456C77.487 29.2963 78.6563 29.4057 79.7592 29.7658L105.172 38.0506C105.314 38.0959 105.463 38.1193 105.613 38.1201H117.797V63.1133H113.764C113.504 63.1134 113.249 63.1846 113.026 63.3193C112.804 63.4539 112.622 63.6469 112.501 63.8773C112.477 63.9269 110.058 68.4264 104.777 70.3066V63.5325C107.258 62.5576 110.011 60.7791 111.708 57.5347C111.794 57.3692 111.847 57.1883 111.864 57.0023C111.881 56.8162 111.861 56.6287 111.805 56.4504C111.749 56.2722 111.659 56.1066 111.539 55.9632C111.42 55.8198 111.273 55.7015 111.107 55.6148C110.942 55.5282 110.761 55.475 110.575 55.4582C110.389 55.4415 110.201 55.4616 110.023 55.5173C109.845 55.5731 109.679 55.6634 109.536 55.7831C109.392 55.9028 109.274 56.0496 109.187 56.2151C106.355 61.63 99.3177 61.8681 99.2804 61.8706C89.8547 61.8706 87.1435 55.2899 87.0344 55.017C86.9315 54.7485 86.7496 54.5175 86.5126 54.3545C86.2757 54.1915 85.9949 54.1042 85.7073 54.1042H71.7919C70.7451 54.0782 69.7499 53.644 69.0187 52.8945C68.2875 52.1449 67.8783 51.1392 67.8783 50.0921C67.8783 49.0449 68.2875 48.0392 69.0187 47.2896C69.7499 46.5401 70.7451 46.1059 71.7919 46.0799H88.411C88.6028 46.0879 88.7943 46.057 88.9739 45.9892C89.1534 45.9213 89.3174 45.8178 89.456 45.6849C89.5945 45.552 89.7048 45.3925 89.7801 45.2159C89.8554 45.0393 89.8942 44.8493 89.8942 44.6573C89.8942 44.4654 89.8554 44.2754 89.7801 44.0988C89.7048 43.9222 89.5945 43.7627 89.456 43.6298C89.3174 43.4969 89.1534 43.3934 88.9739 43.3255C88.7943 43.2576 88.6028 43.2268 88.411 43.2348H71.7919C69.9958 43.269 68.2848 44.0064 67.0267 45.2887C65.7686 46.571 65.0638 48.2957 65.0638 50.0921C65.0638 51.8884 65.7686 53.6131 67.0267 54.8954C68.2848 56.1777 69.9958 56.9151 71.7919 56.9493H84.8144C86.0248 59.1817 89.9663 64.7157 99.3077 64.7157C100.191 64.6773 101.069 64.5636 101.932 64.3758V85.4921H21.4086V76.2746H97.0629C97.2547 76.2826 97.4462 76.2518 97.6257 76.1839C97.8053 76.116 97.9693 76.0125 98.1079 75.8797C98.2464 75.7468 98.3567 75.5872 98.432 75.4106C98.5073 75.2341 98.5461 75.0441 98.5461 74.8521C98.5461 74.6601 98.5073 74.4701 98.432 74.2935C98.3567 74.1169 98.2464 73.9574 98.1079 73.8245C97.9693 73.6916 97.8053 73.5882 97.6257 73.5203C97.4462 73.4524 97.2547 73.4215 97.0629 73.4295H19.9873C19.6097 73.4295 19.2475 73.5795 18.9805 73.8466C18.7135 74.1136 18.5635 74.4757 18.5635 74.8533V85.4921H7.77844C7.41143 85.5074 7.06455 85.664 6.81029 85.9291C6.55603 86.1942 6.41406 86.5473 6.41406 86.9146C6.41406 87.2819 6.55603 87.635 6.81029 87.9001C7.06455 88.1652 7.41143 88.3218 7.77844 88.3372H101.932V94.258C101.931 95.1512 101.576 96.0076 100.945 96.6392C100.313 97.2708 99.4568 97.6259 98.5636 97.6265H24.7771C23.8839 97.6259 23.0275 97.2708 22.3959 96.6392C21.7644 96.0076 21.4093 95.1512 21.4086 94.258V92.9335C21.3933 92.5665 21.2367 92.2196 20.9716 91.9653C20.7065 91.7111 20.3534 91.5691 19.9861 91.5691C19.6187 91.5691 19.2656 91.7111 19.0005 91.9653C18.7354 92.2196 18.5788 92.5665 18.5635 92.9335V94.258C18.5614 95.4532 18.906 96.6233 19.5557 97.6265H11.6926C11.5008 97.6185 11.3094 97.6494 11.1298 97.7172C10.9502 97.7851 10.7862 97.8886 10.6477 98.0215C10.5091 98.1544 10.3989 98.3139 10.3235 98.4905C10.2482 98.6671 10.2094 98.8571 10.2094 99.0491C10.2094 99.241 10.2482 99.431 10.3235 99.6076C10.3989 99.7842 10.5091 99.9437 10.6477 100.077C10.7862 100.21 10.9502 100.313 11.1298 100.381C11.3094 100.449 11.5008 100.48 11.6926 100.472H98.5636C100.211 100.47 101.79 99.8144 102.955 98.6495C104.12 97.4847 104.775 95.9054 104.777 94.258V73.2981C110.376 71.6808 113.476 67.6674 114.57 65.9708H119.221C119.408 65.9708 119.593 65.9339 119.765 65.8623C119.938 65.7908 120.095 65.6858 120.227 65.5536C120.359 65.4214 120.463 65.2644 120.535 65.0917C120.606 64.9189 120.643 64.7338 120.642 64.547V36.6963C120.642 36.5096 120.605 36.3248 120.534 36.1524C120.463 35.9799 120.358 35.8232 120.226 35.6913C120.094 35.5593 119.937 35.4546 119.765 35.3832C119.592 35.3117 119.408 35.275 119.221 35.275Z" fill="#525291"/>
<path d="M18.5635 49.4484V50.0041C18.5788 50.3711 18.7354 50.718 19.0005 50.9722C19.2656 51.2265 19.6187 51.3684 19.986 51.3684C20.3534 51.3684 20.7065 51.2265 20.9716 50.9722C21.2367 50.718 21.3932 50.3711 21.4086 50.0041V49.4484C21.4092 48.5553 21.7643 47.6989 22.3959 47.0673C23.0275 46.4357 23.8839 46.0806 24.7771 46.08H62.0114C62.3784 46.0646 62.7253 45.9081 62.9795 45.643C63.2338 45.3779 63.3757 45.0247 63.3757 44.6574C63.3757 44.2901 63.2338 43.937 62.9795 43.6719C62.7253 43.4068 62.3784 43.2502 62.0114 43.2349H24.7771C23.1297 43.2368 21.5504 43.8921 20.3856 45.057C19.2207 46.2218 18.5654 47.8011 18.5635 49.4484Z" fill="#525291"/>
<path d="M84.6708 67.2904C85.0378 67.2751 85.3847 67.1185 85.639 66.8534C85.8932 66.5883 86.0352 66.2352 86.0352 65.8679C86.0352 65.5005 85.8932 65.1474 85.639 64.8823C85.3847 64.6172 85.0378 64.4606 84.6708 64.4453H66.3575C65.9905 64.4606 65.6437 64.6172 65.3894 64.8823C65.1351 65.1474 64.9932 65.5005 64.9932 65.8679C64.9932 66.2352 65.1351 66.5883 65.3894 66.8534C65.6437 67.1185 65.9905 67.2751 66.3575 67.2904H84.6708Z" fill="#525291"/>
<path d="M61.0621 65.0773C61.0094 64.9999 60.9496 64.9277 60.8835 64.8615C60.7176 64.6962 60.5138 64.5741 60.2898 64.5057C60.0658 64.4374 59.8285 64.425 59.5986 64.4696C59.5086 64.4915 59.4199 64.5189 59.3332 64.5514C59.2467 64.5877 59.1637 64.6317 59.0851 64.6829C59.0081 64.735 58.9366 64.7948 58.8718 64.8615C58.8043 64.9264 58.7444 64.9988 58.6932 65.0773C58.6405 65.1549 58.5964 65.2381 58.5618 65.3253C58.5259 65.4101 58.4985 65.4982 58.4799 65.5883C58.4629 65.6807 58.4546 65.7746 58.4551 65.8686C58.4547 65.9617 58.463 66.0548 58.4799 66.1464C58.4992 66.2379 58.5266 66.3276 58.5618 66.4143C58.5986 66.5005 58.6425 66.5835 58.6932 66.6623C58.7444 66.74 58.8043 66.8116 58.8718 66.8756C58.9354 66.9429 59.007 67.0021 59.0851 67.0518C59.1636 67.1037 59.2467 67.1486 59.3332 67.1857C59.4192 67.2197 59.508 67.2463 59.5986 67.2651C59.69 67.2839 59.7831 67.293 59.8764 67.2924C59.9714 67.2932 60.0661 67.2841 60.1592 67.2651C60.249 67.2466 60.337 67.2201 60.4221 67.1857C60.5089 67.1491 60.592 67.1043 60.6702 67.0518C60.7486 67.0015 60.821 66.9424 60.886 66.8756C60.952 66.8103 61.0118 66.7388 61.0645 66.6623C61.1143 66.5829 61.1582 66.5 61.196 66.4143C61.2289 66.3268 61.2563 66.2373 61.2779 66.1464C61.2948 66.0548 61.3031 65.9617 61.3027 65.8686C61.3031 65.7746 61.2948 65.6807 61.2779 65.5883C61.257 65.4988 61.2296 65.4109 61.196 65.3253C61.1596 65.2385 61.1147 65.1554 61.0621 65.0773Z" fill="#525291"/>
<path d="M54.8654 65.0773C54.8151 64.9988 54.756 64.9264 54.6893 64.8615C54.5234 64.6962 54.3195 64.5741 54.0956 64.5057C53.8716 64.4374 53.6343 64.425 53.4044 64.4696C53.3149 64.4905 53.227 64.5178 53.1414 64.5514C53.0548 64.5874 52.9718 64.6314 52.8934 64.6829C52.8173 64.7362 52.746 64.796 52.6801 64.8615C52.6133 64.9264 52.5542 64.9988 52.504 65.0773C52.4512 65.1549 52.4071 65.2381 52.3725 65.3253C52.3367 65.4101 52.3092 65.4982 52.2906 65.5883C52.2724 65.6805 52.2641 65.7745 52.2658 65.8685C52.2641 65.9618 52.2725 66.0549 52.2906 66.1464C52.3099 66.2379 52.3373 66.3276 52.3725 66.4143C52.4093 66.5005 52.4533 66.5834 52.504 66.6623C52.5543 66.7399 52.6134 66.8115 52.6801 66.8756C52.7447 66.9418 52.8162 67.0008 52.8934 67.0517C52.9717 67.104 53.0548 67.1488 53.1414 67.1857C53.2263 67.2207 53.3143 67.2473 53.4044 67.2651C53.5886 67.3014 53.7782 67.3014 53.9625 67.2651C54.1455 67.2292 54.3193 67.1567 54.4735 67.0517C54.5519 67.0015 54.6243 66.9424 54.6893 66.8756C54.7553 66.8109 54.8143 66.7394 54.8654 66.6623C54.9161 66.5834 54.96 66.5005 54.9968 66.4143C55.0331 66.328 55.0606 66.2382 55.0787 66.1464C55.0956 66.0547 55.1039 65.9617 55.1035 65.8685C55.104 65.7746 55.0957 65.6807 55.0787 65.5883C55.0612 65.4979 55.0338 65.4097 54.9968 65.3253C54.9642 65.2372 54.92 65.1538 54.8654 65.0773Z" fill="#525291"/>
<path d="M48.6514 65.0773C48.6012 64.9995 48.5431 64.9272 48.4778 64.8615C48.4111 64.7959 48.3389 64.7362 48.262 64.6829C48.1831 64.6322 48.1002 64.5882 48.0139 64.5514C47.9266 64.5182 47.8371 64.4908 47.7461 64.4696C47.5165 64.425 47.2796 64.4374 47.056 64.5057C46.8324 64.5741 46.629 64.6962 46.4637 64.8615C46.3962 64.9264 46.3363 64.9988 46.2851 65.0773C46.2323 65.1549 46.1882 65.2381 46.1536 65.3253C46.1197 65.4106 46.0931 65.4985 46.0742 65.5883C46.0552 65.6805 46.0461 65.7744 46.0469 65.8686C46.046 65.9619 46.0552 66.055 46.0742 66.1464C46.0938 66.2376 46.1203 66.3271 46.1536 66.4143C46.1904 66.5005 46.2344 66.5834 46.2851 66.6623C46.3362 66.74 46.3962 66.8116 46.4637 66.8756C46.5955 67.0078 46.752 67.1126 46.9244 67.1842C47.0968 67.2557 47.2816 67.2925 47.4682 67.2925C47.6549 67.2925 47.8397 67.2557 48.0121 67.1842C48.1845 67.1126 48.341 67.0078 48.4728 66.8756C48.5395 66.8115 48.5986 66.7399 48.6489 66.6623C48.7015 66.5846 48.7456 66.5014 48.7804 66.4143C48.8167 66.328 48.8441 66.2382 48.8623 66.1464C48.8821 66.0551 48.8921 65.962 48.892 65.8686C48.8921 65.7743 48.8821 65.6804 48.8623 65.5883C48.8448 65.4979 48.8174 65.4097 48.7804 65.3253C48.7486 65.2373 48.7052 65.1539 48.6514 65.0773Z" fill="#525291"/>
<path d="M8.49023 55.756C8.49023 55.9436 8.5273 56.1294 8.59932 56.3026C8.67134 56.4759 8.77688 56.6331 8.90988 56.7655C9.04288 56.8978 9.20072 57.0025 9.37432 57.0736C9.54792 57.1447 9.73387 57.1808 9.92147 57.1798H18.5634V68.1559C18.5787 68.5229 18.7353 68.8698 19.0004 69.1241C19.2655 69.3783 19.6186 69.5203 19.986 69.5203C20.3533 69.5203 20.7064 69.3783 20.9715 69.1241C21.2366 68.8698 21.3932 68.5229 21.4085 68.1559V57.1798H31.7893C31.9811 57.1878 32.1725 57.157 32.3521 57.0891C32.5317 57.0212 32.6957 56.9177 32.8342 56.7848C32.9728 56.652 33.083 56.4924 33.1583 56.3158C33.2337 56.1393 33.2725 55.9493 33.2725 55.7573C33.2725 55.5653 33.2337 55.3753 33.1583 55.1987C33.083 55.0221 32.9728 54.8626 32.8342 54.7297C32.6957 54.5968 32.5317 54.4933 32.3521 54.4255C32.1725 54.3576 31.9811 54.3267 31.7893 54.3347H9.92147C9.73407 54.3338 9.54833 54.3698 9.37489 54.4407C9.20145 54.5117 9.04373 54.6162 8.91076 54.7482C8.77779 54.8803 8.6722 55.0373 8.60004 55.2102C8.52787 55.3832 8.49056 55.5687 8.49023 55.756Z" fill="#525291"/>
</svg>
