<svg width="91" height="91" viewBox="0 0 91 91" fill="none" xmlns="http://www.w3.org/2000/svg">
<path d="M39.8125 5.6875C36.7981 5.6875 35.7033 7.87719 34.9923 9.31328C34.2814 10.7494 33.8548 11.375 32.7031 11.375H24.1719C23.0406 11.375 21.9556 11.8244 21.1556 12.6244C20.3557 13.4243 19.9062 14.5093 19.9062 15.6406V86.7344C19.9062 87.8657 20.3557 88.9507 21.1556 89.7506C21.9556 90.5506 23.0406 91 24.1719 91H66.8281C67.9594 91 69.0444 90.5506 69.8444 89.7506C70.6443 88.9507 71.0938 87.8657 71.0938 86.7344V68.25C71.0938 67.8729 70.9439 67.5112 70.6773 67.2446C70.4106 66.9779 70.049 66.8281 69.6719 66.8281C69.2948 66.8281 68.9331 66.9779 68.6665 67.2446C68.3998 67.5112 68.25 67.8729 68.25 68.25V86.7344C68.25 87.1115 68.1002 87.4731 67.8335 87.7398C67.5669 88.0064 67.2052 88.1562 66.8281 88.1562H24.1719C23.7948 88.1562 23.4331 88.0064 23.1665 87.7398C22.8998 87.4731 22.75 87.1115 22.75 86.7344V15.6406C22.75 15.2635 22.8998 14.9019 23.1665 14.6352C23.4331 14.3686 23.7948 14.2188 24.1719 14.2188H39.1016V16.3516H27.0156C26.45 16.3516 25.9075 16.5763 25.5075 16.9762C25.1075 17.3762 24.8828 17.9187 24.8828 18.4844V82.4688C24.8828 83.0344 25.1075 83.5769 25.5075 83.9769C25.9075 84.3769 26.45 84.6016 27.0156 84.6016H63.9844C64.55 84.6016 65.0925 84.3769 65.4925 83.9769C65.8925 83.5769 66.1172 83.0344 66.1172 82.4688V68.25C66.1172 68.0614 66.0423 67.8806 65.909 67.7473C65.7756 67.614 65.5948 67.5391 65.4062 67.5391C65.2177 67.5391 65.0369 67.614 64.9035 67.7473C64.7702 67.8806 64.6953 68.0614 64.6953 68.25V71.0938C64.7629 71.7233 64.6895 72.3599 64.4805 72.9576C64.2714 73.5552 63.932 74.0988 63.4867 74.5489C62.9335 74.8904 62.3138 75.1101 61.669 75.1935C61.0242 75.2768 60.3691 75.2219 59.7472 75.0323C59.5282 74.9854 59.3002 75.005 59.0925 75.0886C58.8847 75.1722 58.7067 75.316 58.5812 75.5016C58.4535 75.6931 58.3853 75.9182 58.3853 76.1485C58.3853 76.3788 58.4535 76.6039 58.5812 76.7955C58.9273 77.2842 59.1236 77.863 59.1463 78.4614C59.1691 79.0597 59.0172 79.6518 58.7092 80.1653C58.2133 80.9932 57.5333 81.6958 56.7221 82.2185C55.9108 82.7413 54.9901 83.0701 54.0312 83.1797H27.0156C26.8271 83.1797 26.6462 83.1048 26.5129 82.9715C26.3796 82.8381 26.3047 82.6573 26.3047 82.4688V18.4844C26.3047 18.2958 26.3796 18.115 26.5129 17.9817C26.6462 17.8483 26.8271 17.7734 27.0156 17.7734H39.2295C39.2998 17.9493 39.3904 18.1164 39.4997 18.2711L39.5708 18.3564C39.676 18.4923 39.8006 18.612 39.9405 18.7119C40.1021 18.8142 40.2735 18.8999 40.4523 18.9678H40.5661C40.7593 19.0296 40.9605 19.0631 41.1633 19.0673H49.6945C49.8974 19.0631 50.0985 19.0296 50.2917 18.9678H50.4055C50.5843 18.8999 50.7558 18.8142 50.9173 18.7119C51.0572 18.612 51.1818 18.4923 51.287 18.3564L51.3581 18.2711C51.4674 18.1164 51.558 17.9493 51.6283 17.7734H63.9844C64.1729 17.7734 64.3538 17.8483 64.4871 17.9817C64.6204 18.115 64.6953 18.2958 64.6953 18.4844V49.7656C64.6953 49.9542 64.7702 50.135 64.9035 50.2683C65.0369 50.4017 65.2177 50.4766 65.4062 50.4766C65.5948 50.4766 65.7756 50.4017 65.909 50.2683C66.0423 50.135 66.1172 49.9542 66.1172 49.7656V18.4844C66.1172 17.9187 65.8925 17.3762 65.4925 16.9762C65.0925 16.5763 64.55 16.3516 63.9844 16.3516H51.8984V14.2188H66.8281C67.2052 14.2188 67.5669 14.3686 67.8335 14.6352C68.1002 14.9019 68.25 15.2635 68.25 15.6406V38.3906C68.25 38.7677 68.3998 39.1294 68.6665 39.396C68.9331 39.6627 69.2948 39.8125 69.6719 39.8125C70.049 39.8125 70.4106 39.6627 70.6773 39.396C70.9439 39.1294 71.0938 38.7677 71.0938 38.3906V15.6406C71.0938 14.5093 70.6443 13.4243 69.8444 12.6244C69.0444 11.8244 67.9594 11.375 66.8281 11.375H58.2969C57.1452 11.375 56.7755 10.8347 56.0077 9.31328C55.2398 7.79188 54.2019 5.6875 51.1875 5.6875H49.5097C49.6752 5.23154 49.7618 4.75069 49.7656 4.26562C49.7656 3.13431 49.3162 2.04933 48.5163 1.24937C47.7163 0.449413 46.6313 0 45.5 0C44.3687 0 43.2837 0.449413 42.4837 1.24937C41.6838 2.04933 41.2344 3.13431 41.2344 4.26562C41.2382 4.75069 41.3248 5.23154 41.4903 5.6875H39.8125ZM59.932 80.8478C60.3055 80.2028 60.5116 79.4745 60.5315 78.7295C60.5514 77.9844 60.3844 77.2462 60.0458 76.5822C60.7912 76.7423 61.5618 76.7453 62.3085 76.5911C63.0552 76.4369 63.7615 76.1287 64.3825 75.6864L64.6953 75.3594V82.4688C64.6953 82.6573 64.6204 82.8381 64.4871 82.9715C64.3538 83.1048 64.1729 83.1797 63.9844 83.1797H57.7992C58.6696 82.5648 59.3971 81.7695 59.932 80.8478ZM50.4766 17.0625C50.4766 17.2511 50.4017 17.4319 50.2683 17.5652C50.135 17.6985 49.9542 17.7734 49.7656 17.7734H41.2344C41.0458 17.7734 40.865 17.6985 40.7317 17.5652C40.5983 17.4319 40.5234 17.2511 40.5234 17.0625V14.2188H50.4766V17.0625ZM53.4767 10.593C53.5905 10.8347 53.7327 11.1048 53.8748 11.375H37.1252C37.2673 11.1048 37.4095 10.8347 37.5233 10.593C38.2911 9.07156 38.6608 8.53125 39.8125 8.53125H51.1875C52.3392 8.53125 52.7089 9.07156 53.4767 10.593ZM44.0781 4.26562C44.0781 3.9844 44.1615 3.7095 44.3178 3.47567C44.474 3.24185 44.6961 3.0596 44.9559 2.95198C45.2157 2.84437 45.5016 2.81621 45.7774 2.87107C46.0532 2.92593 46.3066 3.06135 46.5054 3.26021C46.7043 3.45906 46.8397 3.71241 46.8946 3.98823C46.9494 4.26405 46.9213 4.54994 46.8136 4.80975C46.706 5.06957 46.5238 5.29163 46.2899 5.44787C46.0561 5.60411 45.7812 5.6875 45.5 5.6875C45.1229 5.6875 44.7612 5.5377 44.4946 5.27104C44.2279 5.00439 44.0781 4.64273 44.0781 4.26562Z" fill="#525291"/>
<path d="M34.125 57.5859H45.5C46.4428 57.5859 47.3469 57.2114 48.0135 56.5448C48.6802 55.8782 49.0547 54.974 49.0547 54.0312V25.5938C49.0547 24.651 48.6802 23.7468 48.0135 23.0802C47.3469 22.4136 46.4428 22.0391 45.5 22.0391H34.125C33.1822 22.0391 32.2781 22.4136 31.6115 23.0802C30.9448 23.7468 30.5703 24.651 30.5703 25.5938V27.2289C30.3575 27.3517 30.1801 27.5277 30.0555 27.7395C29.9309 27.9513 29.8633 28.1918 29.8594 28.4375V31.2812C29.8633 31.527 29.9309 31.7675 30.0555 31.9793C30.1801 32.1911 30.3575 32.367 30.5703 32.4898V54.0312C30.5703 54.974 30.9448 55.8782 31.6115 56.5448C32.2781 57.2114 33.1822 57.5859 34.125 57.5859ZM45.5 56.1641H34.125C33.5593 56.1641 33.0169 55.9394 32.6169 55.5394C32.2169 55.1394 31.9922 54.5969 31.9922 54.0312V27.4422H33.4141C33.8833 27.4422 34.0966 27.6412 34.4947 28.0678C34.7434 28.3961 35.0632 28.6638 35.4301 28.851C35.797 29.0381 36.2015 29.1398 36.6133 29.1484H43.0117C43.4235 29.1398 43.828 29.0381 44.1949 28.851C44.5618 28.6638 44.8816 28.3961 45.1303 28.0678C45.5284 27.6412 45.7417 27.4422 46.2109 27.4422H47.6328V54.0312C47.6328 54.5969 47.4081 55.1394 47.0081 55.5394C46.6081 55.9394 46.0657 56.1641 45.5 56.1641ZM31.9922 25.5938C31.9922 25.0281 32.2169 24.4856 32.6169 24.0856C33.0169 23.6856 33.5593 23.4609 34.125 23.4609H45.5C46.0657 23.4609 46.6081 23.6856 47.0081 24.0856C47.4081 24.4856 47.6328 25.0281 47.6328 25.5938V26.0203H46.2109C45.7992 26.029 45.3947 26.1307 45.0278 26.3178C44.6609 26.5049 44.3411 26.7727 44.0923 27.1009C43.6942 27.5275 43.4809 27.7266 43.0117 27.7266H36.6133C36.1441 27.7266 35.9308 27.5275 35.5327 27.1009C35.2839 26.7727 34.9641 26.5049 34.5972 26.3178C34.2303 26.1307 33.8258 26.029 33.4141 26.0203H31.9922V25.5938Z" fill="#525291"/>
<path d="M56.1641 72.5156C56.1641 72.3271 56.0892 72.1462 55.9558 72.0129C55.8225 71.8796 55.6417 71.8047 55.4531 71.8047H32.7031C32.5146 71.8047 32.3337 71.8796 32.2004 72.0129C32.0671 72.1462 31.9922 72.3271 31.9922 72.5156C31.9922 72.7042 32.0671 72.885 32.2004 73.0183C32.3337 73.1517 32.5146 73.2266 32.7031 73.2266H55.4531C55.6417 73.2266 55.8225 73.1517 55.9558 73.0183C56.0892 72.885 56.1641 72.7042 56.1641 72.5156Z" fill="#525291"/>
<path d="M57.7565 60.0317C57.4619 59.7992 57.0872 59.6927 56.7143 59.7353C56.3414 59.7779 56.0005 59.9662 55.7659 60.2592L51.0737 66.1173L49.3532 64.3969C49.2207 64.2643 49.0633 64.1591 48.8901 64.0874C48.7169 64.0156 48.5312 63.9787 48.3437 63.9787C48.1562 63.9787 47.9706 64.0156 47.7974 64.0874C47.6241 64.1591 47.4668 64.2643 47.3342 64.3969C47.2016 64.5294 47.0964 64.6868 47.0247 64.86C46.9529 65.0332 46.916 65.2189 46.916 65.4064C46.916 65.5939 46.9529 65.7795 47.0247 65.9527C47.0964 66.126 47.2016 66.2833 47.3342 66.4159L50.1779 69.2597C50.3108 69.3915 50.4684 69.4957 50.6416 69.5665C50.8148 69.6372 51.0003 69.6731 51.1875 69.672H51.2728C51.4718 69.6588 51.6657 69.6038 51.8421 69.5108C52.0185 69.4177 52.1733 69.2885 52.2965 69.1317L57.984 62.0223C58.2165 61.7277 58.3231 61.353 58.2804 60.9801C58.2378 60.6072 58.0495 60.2663 57.7565 60.0317Z" fill="#525291"/>
<path d="M54.0312 23.4609H56.875C57.0636 23.4609 57.2444 23.386 57.3777 23.2527C57.511 23.1194 57.5859 22.9386 57.5859 22.75C57.5859 22.5614 57.511 22.3806 57.3777 22.2473C57.2444 22.114 57.0636 22.0391 56.875 22.0391H54.0312C53.8427 22.0391 53.6619 22.114 53.5285 22.2473C53.3952 22.3806 53.3203 22.5614 53.3203 22.75C53.3203 22.9386 53.3952 23.1194 53.5285 23.2527C53.6619 23.386 53.8427 23.4609 54.0312 23.4609Z" fill="#525291"/>
<path d="M54.0312 29.1484H61.1406C61.3292 29.1484 61.51 29.0735 61.6433 28.9402C61.7767 28.8069 61.8516 28.6261 61.8516 28.4375C61.8516 28.2489 61.7767 28.0681 61.6433 27.9348C61.51 27.8015 61.3292 27.7266 61.1406 27.7266H54.0312C53.8427 27.7266 53.6619 27.8015 53.5285 27.9348C53.3952 28.0681 53.3203 28.2489 53.3203 28.4375C53.3203 28.6261 53.3952 28.8069 53.5285 28.9402C53.6619 29.0735 53.8427 29.1484 54.0312 29.1484Z" fill="#525291"/>
<path d="M54.0312 34.8359H56.875C57.0636 34.8359 57.2444 34.761 57.3777 34.6277C57.511 34.4944 57.5859 34.3136 57.5859 34.125C57.5859 33.9364 57.511 33.7556 57.3777 33.6223C57.2444 33.489 57.0636 33.4141 56.875 33.4141H54.0312C53.8427 33.4141 53.6619 33.489 53.5285 33.6223C53.3952 33.7556 53.3203 33.9364 53.3203 34.125C53.3203 34.3136 53.3952 34.4944 53.5285 34.6277C53.6619 34.761 53.8427 34.8359 54.0312 34.8359Z" fill="#525291"/>
<path d="M61.8516 39.8125C61.8516 39.6239 61.7767 39.4431 61.6433 39.3098C61.51 39.1765 61.3292 39.1016 61.1406 39.1016H54.0312C53.8427 39.1016 53.6619 39.1765 53.5285 39.3098C53.3952 39.4431 53.3203 39.6239 53.3203 39.8125C53.3203 40.0011 53.3952 40.1819 53.5285 40.3152C53.6619 40.4485 53.8427 40.5234 54.0312 40.5234H61.1406C61.3292 40.5234 61.51 40.4485 61.6433 40.3152C61.7767 40.1819 61.8516 40.0011 61.8516 39.8125Z" fill="#525291"/>
<path d="M59.0078 45.5C59.0078 45.3114 58.9329 45.1306 58.7996 44.9973C58.6663 44.864 58.4854 44.7891 58.2969 44.7891H54.0312C53.8427 44.7891 53.6619 44.864 53.5285 44.9973C53.3952 45.1306 53.3203 45.3114 53.3203 45.5C53.3203 45.6886 53.3952 45.8694 53.5285 46.0027C53.6619 46.136 53.8427 46.2109 54.0312 46.2109H58.2969C58.4854 46.2109 58.6663 46.136 58.7996 46.0027C58.9329 45.8694 59.0078 45.6886 59.0078 45.5Z" fill="#525291"/>
<path d="M32.7031 77.4922C32.5146 77.4922 32.3337 77.5671 32.2004 77.7004C32.0671 77.8337 31.9922 78.0146 31.9922 78.2031C31.9922 78.3917 32.0671 78.5725 32.2004 78.7058C32.3337 78.8392 32.5146 78.9141 32.7031 78.9141H48.3438C48.5323 78.9141 48.7131 78.8392 48.8465 78.7058C48.9798 78.5725 49.0547 78.3917 49.0547 78.2031C49.0547 78.0146 48.9798 77.8337 48.8465 77.7004C48.7131 77.5671 48.5323 77.4922 48.3438 77.4922H32.7031Z" fill="#525291"/>
<path d="M63.572 56.377C62.8634 57.0897 62.4293 58.0297 62.346 59.0312C62.2628 60.0327 62.5358 61.0314 63.117 61.8513L62.0648 62.9034C61.9982 62.9695 61.9453 63.0482 61.9092 63.1348C61.8731 63.2214 61.8545 63.3144 61.8545 63.4082C61.8545 63.5021 61.8731 63.595 61.9092 63.6816C61.9453 63.7683 61.9982 63.8469 62.0648 63.913C62.1286 63.981 62.2057 64.0352 62.2913 64.0722C62.3769 64.1093 62.4692 64.1284 62.5624 64.1284C62.6557 64.1284 62.748 64.1093 62.8336 64.0722C62.9192 64.0352 62.9963 63.981 63.0601 63.913L64.1265 62.8608C64.8443 63.3743 65.7038 63.6525 66.5863 63.657C67.1583 63.666 67.7261 63.5598 68.2562 63.3449C68.7863 63.1299 69.2677 62.8106 69.6718 62.4058L71.6767 60.4009L87.7012 44.3053C88.5 43.5055 88.9487 42.4213 88.9487 41.2909C88.9487 40.1605 88.5 39.0764 87.7012 38.2766C86.9547 37.5369 85.9614 37.0988 84.9118 37.0463C83.8623 36.9939 82.8302 37.3307 82.0137 37.9922C81.4099 37.7625 80.7642 37.664 80.1194 37.7032C79.4746 37.7424 78.8456 37.9185 78.2742 38.2197C75.6555 39.5838 73.301 41.4038 71.3212 43.5944C71.19 43.7297 71.1167 43.9107 71.1167 44.0991C71.1167 44.2876 71.19 44.4686 71.3212 44.6039C71.4581 44.7319 71.6385 44.803 71.826 44.803C72.0134 44.803 72.1938 44.7319 72.3307 44.6039C77.0513 39.8833 79.4401 38.9875 80.862 39.1155L65.5768 54.358L63.572 56.377ZM67.5959 60.4009C67.4633 60.5335 67.3059 60.6387 67.1327 60.7104C66.9595 60.7822 66.7738 60.8191 66.5863 60.8191C66.3989 60.8191 66.2132 60.7822 66.04 60.7104C65.8668 60.6387 65.7094 60.5335 65.5768 60.4009C65.4442 60.2684 65.3391 60.111 65.2673 59.9378C65.1956 59.7646 65.1587 59.5789 65.1587 59.3914C65.1587 59.2039 65.1956 59.0183 65.2673 58.8451C65.3391 58.6718 65.4442 58.5145 65.5768 58.3819L66.5863 57.3723L68.5912 59.3914L67.5959 60.4009ZM83.6773 40.2814C83.9437 40.0166 84.3041 39.8679 84.6797 39.8679C85.0553 39.8679 85.4157 40.0166 85.6821 40.2814C85.8154 40.4136 85.9212 40.5709 85.9934 40.7441C86.0655 40.9174 86.1027 41.1032 86.1027 41.2909C86.1027 41.4786 86.0655 41.6645 85.9934 41.8378C85.9212 42.011 85.8154 42.1683 85.6821 42.3005L70.6103 57.3723L68.5912 55.3675L83.6773 40.2814Z" fill="#525291"/>
</svg>
